<svg width="28" height="28" viewBox="0 0 28 28" fill="none" xmlns="http://www.w3.org/2000/svg">
<path d="M11.4221 11.3127C11.4221 10.2744 10.7116 10.2744 10.7116 10.2744H10.3291H7.81506V12.5151H10.5477C10.9848 12.5151 11.4221 12.3511 11.4221 11.3127Z" fill="#F1F1F1"/>
<path d="M18.1443 12.5156C16.6141 12.5156 16.3955 14.0459 16.3955 14.0459H19.6746C19.6746 14.0459 19.6746 12.5156 18.1443 12.5156Z" fill="#F1F1F1"/>
<path d="M10.7116 14.0439H7.81506V16.7219H10.3837C10.4384 16.7219 10.493 16.7219 10.5477 16.7219C10.9848 16.7219 11.75 16.6126 11.75 15.4103C11.75 14.0439 10.7116 14.0439 10.7116 14.0439Z" fill="#F1F1F1"/>
<path d="M13.5536 0C6.06632 0 0 6.06633 0 13.5536C0 21.0408 6.06632 27.1071 13.5536 27.1071C21.0408 27.1071 27.1071 21.0408 27.1071 13.5536C27.1618 6.12098 21.0408 0 13.5536 0ZM15.9582 9.12684H20.0571V10.3838H15.9582V9.12684ZM13.8814 15.5757C13.8814 18.6362 10.7117 18.5269 10.7117 18.5269H7.81513H7.70587H5.51981V8.52562H7.70587H7.81513H10.7117C12.2966 8.52562 13.5536 9.40009 13.5536 11.2036C13.5536 13.007 12.0233 13.1164 12.0233 13.1164C14.0454 13.0617 13.8814 15.5757 13.8814 15.5757ZM21.5873 15.4117H16.3955C16.3955 17.2699 18.1443 17.1606 18.1443 17.1606C19.7838 17.1606 19.7292 16.0676 19.7292 16.0676H21.4781C21.4781 18.9094 18.035 18.7454 18.035 18.7454C13.9361 18.7454 14.2094 14.9198 14.2094 14.9198C14.2094 14.9198 14.2094 11.0942 18.035 11.0942C22.1339 11.0396 21.5873 15.4117 21.5873 15.4117Z" fill="#F1F1F1"/>
</svg>
