<svg width="24" height="22" viewBox="0 0 24 22" fill="none" xmlns="http://www.w3.org/2000/svg">
<path d="M0.86121 9.96426C0.86121 15.3708 5.8369 19.7537 11.9747 19.7537C13.616 19.7537 15.1742 19.4403 16.5764 18.8777C17.4195 18.5394 18.2062 18.1111 18.9207 17.6066C19.566 17.151 20.1523 16.6332 20.668 16.0637C22.1828 14.3907 23.0883 12.2706 23.0883 9.96426C23.0883 4.55769 18.1126 0.174805 11.9747 0.174805C5.8369 0.174805 0.86121 4.55769 0.86121 9.96426Z" fill="white"/>
<path d="M20.668 16.0637L22.0464 21.5553L16.5764 18.8777C17.4195 18.5394 18.2062 18.1111 18.9207 17.6066C19.566 17.151 20.1523 16.6332 20.668 16.0637Z" fill="white"/>
<ellipse rx="1.34578" ry="1.30237" transform="matrix(-1 0 0 1 16.6199 9.90002)" fill="#A03ADB"/>
<ellipse rx="1.34578" ry="1.30237" transform="matrix(-1 0 0 1 11.975 9.89856)" fill="#A03ADB"/>
<ellipse rx="1.36748" ry="1.30237" transform="matrix(-1 0 0 1 7.3083 9.89856)" fill="#A03ADB"/>
</svg>
