<svg width="28" height="28" viewBox="0 0 28 28" fill="none" xmlns="http://www.w3.org/2000/svg">
<path d="M13.5549 0C6.06688 0 0 6.06697 0 13.555C0 21.043 6.06688 27.11 13.5549 27.11C21.0428 27.11 27.1096 21.043 27.1096 13.555C27.1643 6.12163 21.0428 0 13.5549 0ZM16.9435 14.0469H14.7573C14.7573 17.5997 14.7573 21.9175 14.7573 21.9175H11.4779C11.4779 21.9175 11.4779 17.5997 11.4779 14.0469H9.9475V11.3141H11.4779V9.51035C11.4779 8.19864 12.0791 6.23094 14.7573 6.23094H17.1621V8.90913C17.1621 8.90913 15.6864 8.90913 15.4132 8.90913C15.1399 8.90913 14.7026 9.07314 14.7026 9.67436V11.3141H17.2168L16.9435 14.0469Z" fill="#F1F1F1"/>
</svg>
