<svg width="28" height="28" viewBox="0 0 28 28" fill="none" xmlns="http://www.w3.org/2000/svg">
<path d="M13.5536 16.2855C15.0292 16.2855 16.2862 15.0832 16.2862 13.5529C16.2862 12.9518 16.0676 12.4053 15.7943 11.968C15.3025 11.2575 14.4827 10.8203 13.6083 10.8203C12.6792 10.8203 11.914 11.2575 11.4222 11.968C11.0943 12.4053 10.9303 12.9518 10.9303 13.5529C10.8757 15.0832 12.078 16.2855 13.5536 16.2855Z" fill="#F1F1F1"/>
<path d="M19.5107 10.2742V7.97879V7.65088H19.1829H16.8875V10.2742H19.5107Z" fill="#F1F1F1"/>
<path d="M13.5536 0C6.06632 0 0 6.06633 0 13.5536C0 21.0408 6.06632 27.1071 13.5536 27.1071C21.0408 27.1071 27.1071 21.0408 27.1071 13.5536C27.1618 6.12098 21.0408 0 13.5536 0ZM21.2594 12.0233V18.3629C21.2594 20.0024 19.9478 21.3687 18.2536 21.3687H8.79893C7.15938 21.3687 5.79306 20.0571 5.79306 18.3629V12.0233V8.85353C5.79306 7.21404 7.10471 5.84772 8.79893 5.84772H18.2536C19.8932 5.84772 21.2594 7.15938 21.2594 8.85353V12.0233Z" fill="#F1F1F1"/>
<path d="M17.7617 13.6083C17.7617 15.9583 15.8489 17.8164 13.5536 17.8164C11.2582 17.8164 9.34539 15.9037 9.34539 13.6083C9.34539 13.0618 9.45472 12.5153 9.67331 12.0234H7.37793V18.363C7.37793 19.1827 8.03375 19.8386 8.85356 19.8386H18.3082C19.1281 19.8386 19.7838 19.1827 19.7838 18.363V12.0234H17.4885C17.6524 12.5153 17.7617 13.0072 17.7617 13.6083Z" fill="#F1F1F1"/>
</svg>
