<?xml version="1.0" encoding="utf-8"?>
<!-- Generator: Adobe Illustrator 22.0.1, SVG Export Plug-In . SVG Version: 6.00 Build 0)  -->
<svg version="1.1" id="Слой_1" xmlns="http://www.w3.org/2000/svg" xmlns:xlink="http://www.w3.org/1999/xlink" x="0px" y="0px"
	 viewBox="0 0 750 1334" style="enable-background:new 0 0 750 1334;" xml:space="preserve">
<style type="text/css">
	.st0{fill:none;stroke:white;stroke-width:6;stroke-miterlimit:10;}
</style>
<circle class="st0" cx="447.5" cy="56.5" r="7"/>
<circle class="st0" cx="447.5" cy="56.5" r="5"/>
<path class="st0" d="M409.5,61.5h-69c-2.8,0-5-2.2-5-5v0c0-2.8,2.2-5,5-5h69c2.8,0,5,2.2,5,5v0C414.5,59.3,412.3,61.5,409.5,61.5z"
	/>
<path class="st0" d="M587.5,1333.5h-429c-60.8,0-110-49.1-110-109.7V181.5v-68.8C48.5,52.1,97.7,3,158.5,3h429
	c60.8,0,110,49.1,110,109.7v195.5v915.6C697.5,1284.4,648.3,1333.5,587.5,1333.5z"/>
<path class="st0" d="M697.5,467.5"/>
<path class="st0" d="M697.5,305.5"/>
<line class="st0" x1="48.5" y1="276" x2="48.5" y2="374.3"/>
<line class="st0" x1="48.5" y1="397" x2="48.5" y2="495.2"/>
<path class="st0" d="M609.2,42.5h-71.3c0.4,2.1,0.6,4.3,0.6,6.5v0c0,20.7-16.8,37.5-37.5,37.5H248c-20.7,0-37.5-16.8-37.5-37.5v0
	c0-2.2,0.2-4.4,0.6-6.5h-73.3c-28.9,0-52.3,23.4-52.3,52.3v1140.5c0,28.9,23.4,52.3,52.3,52.3h471.5c28.9,0,52.3-23.4,52.3-52.3
	V94.8C661.5,65.9,638.1,42.5,609.2,42.5z"/>
</svg>
