<svg width="27" height="27" viewBox="0 0 27 27" fill="none" xmlns="http://www.w3.org/2000/svg">
<path d="M13.5 0C6 0 0 6 0 13.5C0 21 6 27 13.5 27C21 27 27 21 27 13.5C27 6 21 0 13.5 0ZM8.1 17H8C8 17 8 17 8 16.9V11.5C8 11.5 8 11.5 8.1 11.5C8.1 11.5 8.1 11.5 8.2 11.5L11.4 13.4L8.1 17C8.2 17 8.2 17 8.1 17ZM19.8 18.2C19.7 18.3 19.6 18.3 19.6 18.3H8.5C8.5 18.3 8.5 18.3 8.4 18.3C8.4 18.3 8.4 18.3 8.4 18.2C8.4 18.2 8.4 18.2 8.4 18.1L12.3 13.9C12.3 13.9 12.3 13.9 12.4 13.9C12.4 13.9 12.4 13.9 12.5 13.9L13.8 14.7C13.9 14.7 14 14.8 14 14.8C14.1 14.8 14.2 14.8 14.3 14.7L15.4 14C15.4 14 15.4 14 15.5 14C15.5 14 15.5 14 15.6 14L19.9 18C19.8 18.1 19.8 18.1 19.8 18.2C19.9 18.1 19.8 18.1 19.8 18.2ZM20 16.7C19.9 16.8 19.9 16.8 19.9 16.8C19.9 16.8 19.9 16.8 19.8 16.8L16.4 13.7L19.8 11.8V16.7H20ZM20 10.2C20 10.2 20 10.3 20 10.2L14 13.7C14 13.7 14 13.7 13.9 13.7L8.2 10.3L8.1 10.2L8 10.1V9.4C8 9.3 8 9.2 8.1 9.1C8.2 9 8.3 9 8.4 9H19.6C19.7 9 19.8 9 19.9 9.1C20 9.2 20 9.3 20 9.4V10.2Z" fill="#F1F1F1"/>
</svg>
