<svg width="57" height="35" viewBox="0 0 57 35" fill="none" xmlns="http://www.w3.org/2000/svg">
<path d="M26.76 0.295998V32.264C26.76 33.384 26.584 34.12 26.232 34.472C25.912 34.824 25.208 35 24.12 35H17.304C15.416 35 14.168 34.712 13.56 34.136C12.984 33.56 12.472 32.072 12.024 29.672C11.128 24.936 9.832 17.288 8.136 6.728C8.008 5.928 7.816 5.416 7.56 5.192C7.336 4.968 6.936 4.84 6.36 4.808H0.456V0.295998H10.872C11.672 0.295998 12.312 0.391998 12.792 0.584C13.272 0.775999 13.656 1.192 13.944 1.832C14.264 2.44 14.472 3.032 14.568 3.608C14.696 4.184 14.824 4.856 14.952 5.624C15.112 6.552 15.336 7.912 15.624 9.704C16.168 13.32 17.016 18.424 18.168 25.016C18.616 27.832 18.92 29.416 19.08 29.768C19.272 30.088 19.592 30.28 20.04 30.344V2.216C20.04 1.64 20.2 1.176 20.52 0.823999C20.84 0.471998 21.256 0.295998 21.768 0.295998H26.76ZM0.456 6.488H5.448C5.96 6.488 6.376 6.664 6.696 7.016C7.016 7.368 7.176 7.832 7.176 8.408V32.264C7.176 33.352 7.032 34.088 6.744 34.472C6.456 34.824 5.88 35 5.016 35H0.456V6.488ZM46.5544 4.856H42.0904C41.5784 4.856 41.3224 4.984 41.3224 5.24V35H36.2824C35.1944 35 34.4744 34.84 34.1224 34.52C33.8024 34.168 33.6424 33.448 33.6424 32.36V3.032C33.6424 1.912 33.8024 1.176 34.1224 0.823999C34.4744 0.471998 35.1944 0.295998 36.2824 0.295998H46.5544V4.856ZM49.2424 19.928H53.8024C55.1144 19.928 55.9624 20.232 56.3464 20.84C56.7304 21.416 56.9224 22.344 56.9224 23.624V30.728C56.9224 32.84 56.3624 34.136 55.2424 34.616C54.6984 34.872 54.0104 35 53.1784 35H43.2424V30.488H47.2744C48.5864 30.488 49.2424 30.024 49.2424 29.096V19.928ZM48.6184 0.295998H53.1784C54.4584 0.295998 55.2744 0.583998 55.6264 1.16C56.0104 1.736 56.2024 2.68 56.2024 3.992V13.208C56.2024 15.064 55.8664 16.408 55.1944 17.24C54.5544 18.072 53.1944 18.488 51.1144 18.488H43.2424V13.928H46.7944C47.5944 13.928 48.0904 13.736 48.2824 13.352C48.5064 12.968 48.6184 12.376 48.6184 11.576V0.295998Z" fill="white"/>
</svg>
